<mxfile host="app.diagrams.net" agent="Mozilla/5.0 (Windows NT 10.0; Win64; x64) AppleWebKit/537.36 (KHTML, like Gecko) Chrome/135.0.0.0 Safari/537.36" version="26.2.14">
  <diagram name="Page-1" id="b5b7bab2-c9e2-2cf4-8b2a-24fd1a2a6d21">
    <mxGraphModel grid="1" page="1" gridSize="10" guides="1" tooltips="1" connect="1" arrows="1" fold="1" pageScale="1" pageWidth="827" pageHeight="1169" background="none" math="0" shadow="0">
      <root>
        <mxCell id="0" />
        <mxCell id="1" parent="0" />
        <mxCell id="gKyVmOSs5IsR8W9jPp8y-1" value="" style="shape=folder;fontStyle=1;spacingTop=10;tabWidth=150;tabHeight=20;tabPosition=left;html=1;whiteSpace=wrap;" vertex="1" parent="1">
          <mxGeometry x="40" y="50" width="450" height="120" as="geometry" />
        </mxCell>
        <mxCell id="gKyVmOSs5IsR8W9jPp8y-2" value="" style="shape=folder;fontStyle=1;spacingTop=10;tabWidth=150;tabHeight=20;tabPosition=left;html=1;whiteSpace=wrap;" vertex="1" parent="1">
          <mxGeometry x="40" y="300" width="470" height="180" as="geometry" />
        </mxCell>
        <mxCell id="gKyVmOSs5IsR8W9jPp8y-3" value="" style="shape=folder;fontStyle=1;spacingTop=10;tabWidth=70;tabHeight=20;tabPosition=left;html=1;whiteSpace=wrap;" vertex="1" parent="1">
          <mxGeometry x="70" y="520" width="220" height="110" as="geometry" />
        </mxCell>
        <mxCell id="gKyVmOSs5IsR8W9jPp8y-4" value="" style="shape=folder;fontStyle=1;spacingTop=10;tabWidth=190;tabHeight=24;tabPosition=left;html=1;whiteSpace=wrap;" vertex="1" parent="1">
          <mxGeometry x="880" y="76" width="460" height="150" as="geometry" />
        </mxCell>
        <mxCell id="gKyVmOSs5IsR8W9jPp8y-6" value="Registro de usuario" style="shape=module;align=left;spacingLeft=20;align=center;verticalAlign=top;whiteSpace=wrap;html=1;" vertex="1" parent="1">
          <mxGeometry x="50" y="90" width="100" height="50" as="geometry" />
        </mxCell>
        <mxCell id="gKyVmOSs5IsR8W9jPp8y-7" value="Gesti贸n De Usuarios" style="text;align=center;fontStyle=1;verticalAlign=middle;spacingLeft=3;spacingRight=3;strokeColor=none;rotatable=0;points=[[0,0.5],[1,0.5]];portConstraint=eastwest;html=1;" vertex="1" parent="1">
          <mxGeometry x="60" y="50" width="80" height="26" as="geometry" />
        </mxCell>
        <mxCell id="gKyVmOSs5IsR8W9jPp8y-8" value="Gesti贸n De Cursos" style="text;align=center;fontStyle=1;verticalAlign=middle;spacingLeft=3;spacingRight=3;strokeColor=none;rotatable=0;points=[[0,0.5],[1,0.5]];portConstraint=eastwest;html=1;" vertex="1" parent="1">
          <mxGeometry x="60" y="300" width="80" height="26" as="geometry" />
        </mxCell>
        <mxCell id="gKyVmOSs5IsR8W9jPp8y-9" value="BBDD" style="text;align=center;fontStyle=1;verticalAlign=middle;spacingLeft=3;spacingRight=3;strokeColor=none;rotatable=0;points=[[0,0.5],[1,0.5]];portConstraint=eastwest;html=1;" vertex="1" parent="1">
          <mxGeometry x="60" y="520" width="80" height="26" as="geometry" />
        </mxCell>
        <mxCell id="gKyVmOSs5IsR8W9jPp8y-11" value="Inicio De sesion" style="shape=module;align=left;spacingLeft=20;align=center;verticalAlign=top;whiteSpace=wrap;html=1;" vertex="1" parent="1">
          <mxGeometry x="200" y="90" width="100" height="50" as="geometry" />
        </mxCell>
        <mxCell id="gKyVmOSs5IsR8W9jPp8y-12" value="Roles y permiso de cada tipo de usuario" style="shape=module;align=left;spacingLeft=20;align=center;verticalAlign=top;whiteSpace=wrap;html=1;" vertex="1" parent="1">
          <mxGeometry x="340" y="90" width="120" height="50" as="geometry" />
        </mxCell>
        <mxCell id="gKyVmOSs5IsR8W9jPp8y-13" value="Crear, Actualizar y Eliminar Cursos" style="shape=module;align=left;spacingLeft=20;align=center;verticalAlign=top;whiteSpace=wrap;html=1;" vertex="1" parent="1">
          <mxGeometry x="50" y="330" width="120" height="50" as="geometry" />
        </mxCell>
        <mxCell id="gKyVmOSs5IsR8W9jPp8y-14" value="Asignaci贸n y Gesti贸n de Instructores" style="shape=module;align=left;spacingLeft=20;align=center;verticalAlign=top;whiteSpace=wrap;html=1;" vertex="1" parent="1">
          <mxGeometry x="190" y="330" width="130" height="50" as="geometry" />
        </mxCell>
        <mxCell id="gKyVmOSs5IsR8W9jPp8y-15" value="" style="shape=folder;fontStyle=1;spacingTop=10;tabWidth=70;tabHeight=20;tabPosition=left;html=1;whiteSpace=wrap;" vertex="1" parent="1">
          <mxGeometry x="530" y="273" width="170" height="95" as="geometry" />
        </mxCell>
        <mxCell id="gKyVmOSs5IsR8W9jPp8y-16" value="Servicios" style="text;align=center;fontStyle=1;verticalAlign=middle;spacingLeft=3;spacingRight=3;strokeColor=none;rotatable=0;points=[[0,0.5],[1,0.5]];portConstraint=eastwest;html=1;" vertex="1" parent="1">
          <mxGeometry x="520" y="273" width="80" height="26" as="geometry" />
        </mxCell>
        <mxCell id="gKyVmOSs5IsR8W9jPp8y-17" value="Json Web Tokens(JWT)" style="shape=module;align=left;spacingLeft=20;align=center;verticalAlign=top;whiteSpace=wrap;html=1;" vertex="1" parent="1">
          <mxGeometry x="550" y="303" width="100" height="55" as="geometry" />
        </mxCell>
        <mxCell id="gKyVmOSs5IsR8W9jPp8y-18" value="MongoDB" style="shape=module;align=left;spacingLeft=20;align=center;verticalAlign=top;whiteSpace=wrap;html=1;" vertex="1" parent="1">
          <mxGeometry x="130" y="565" width="100" height="50" as="geometry" />
        </mxCell>
        <mxCell id="gKyVmOSs5IsR8W9jPp8y-19" value="" style="endArrow=block;dashed=1;endFill=0;endSize=12;html=1;rounded=0;exitX=1;exitY=0.717;exitDx=0;exitDy=0;exitPerimeter=0;entryX=0.313;entryY=0;entryDx=0;entryDy=0;entryPerimeter=0;" edge="1" parent="1" source="gKyVmOSs5IsR8W9jPp8y-1" target="gKyVmOSs5IsR8W9jPp8y-16">
          <mxGeometry width="160" relative="1" as="geometry">
            <mxPoint x="480" y="300" as="sourcePoint" />
            <mxPoint x="640" y="300" as="targetPoint" />
          </mxGeometry>
        </mxCell>
        <mxCell id="gKyVmOSs5IsR8W9jPp8y-20" value="" style="endArrow=block;dashed=1;endFill=0;endSize=12;html=1;rounded=0;exitX=0.665;exitY=0.994;exitDx=0;exitDy=0;exitPerimeter=0;entryX=0;entryY=0;entryDx=305;entryDy=20;entryPerimeter=0;" edge="1" parent="1" source="gKyVmOSs5IsR8W9jPp8y-1" target="gKyVmOSs5IsR8W9jPp8y-2">
          <mxGeometry width="160" relative="1" as="geometry">
            <mxPoint x="480" y="300" as="sourcePoint" />
            <mxPoint x="640" y="300" as="targetPoint" />
          </mxGeometry>
        </mxCell>
        <mxCell id="gKyVmOSs5IsR8W9jPp8y-21" value="" style="endArrow=block;dashed=1;endFill=0;endSize=12;html=1;rounded=0;exitX=0.372;exitY=0.987;exitDx=0;exitDy=0;exitPerimeter=0;entryX=0;entryY=0;entryDx=145;entryDy=20;entryPerimeter=0;" edge="1" parent="1" source="gKyVmOSs5IsR8W9jPp8y-2" target="gKyVmOSs5IsR8W9jPp8y-3">
          <mxGeometry width="160" relative="1" as="geometry">
            <mxPoint x="480" y="300" as="sourcePoint" />
            <mxPoint x="640" y="300" as="targetPoint" />
          </mxGeometry>
        </mxCell>
        <mxCell id="gKyVmOSs5IsR8W9jPp8y-22" value="" style="endArrow=block;dashed=1;endFill=0;endSize=12;html=1;rounded=0;exitX=1.002;exitY=0.428;exitDx=0;exitDy=0;exitPerimeter=0;entryX=0;entryY=0;entryDx=0;entryDy=52.5;entryPerimeter=0;" edge="1" parent="1" source="gKyVmOSs5IsR8W9jPp8y-1" target="gKyVmOSs5IsR8W9jPp8y-4">
          <mxGeometry width="160" relative="1" as="geometry">
            <mxPoint x="480" y="300" as="sourcePoint" />
            <mxPoint x="640" y="300" as="targetPoint" />
          </mxGeometry>
        </mxCell>
        <mxCell id="gKyVmOSs5IsR8W9jPp8y-23" value="" style="shape=folder;fontStyle=1;spacingTop=10;tabWidth=70;tabHeight=20;tabPosition=left;html=1;whiteSpace=wrap;" vertex="1" parent="1">
          <mxGeometry x="560" y="150" width="190" height="110" as="geometry" />
        </mxCell>
        <mxCell id="gKyVmOSs5IsR8W9jPp8y-24" value="BBDD" style="text;align=center;fontStyle=1;verticalAlign=middle;spacingLeft=3;spacingRight=3;strokeColor=none;rotatable=0;points=[[0,0.5],[1,0.5]];portConstraint=eastwest;html=1;" vertex="1" parent="1">
          <mxGeometry x="560" y="150" width="80" height="26" as="geometry" />
        </mxCell>
        <mxCell id="gKyVmOSs5IsR8W9jPp8y-25" value="MongoDB" style="shape=module;align=left;spacingLeft=20;align=center;verticalAlign=top;whiteSpace=wrap;html=1;" vertex="1" parent="1">
          <mxGeometry x="610" y="190" width="100" height="50" as="geometry" />
        </mxCell>
        <mxCell id="gKyVmOSs5IsR8W9jPp8y-27" value="" style="shape=folder;fontStyle=1;spacingTop=10;tabWidth=70;tabHeight=20;tabPosition=left;html=1;whiteSpace=wrap;" vertex="1" parent="1">
          <mxGeometry x="1021" y="310" width="220" height="110" as="geometry" />
        </mxCell>
        <mxCell id="gKyVmOSs5IsR8W9jPp8y-28" value="BBDD" style="text;align=center;fontStyle=1;verticalAlign=middle;spacingLeft=3;spacingRight=3;strokeColor=none;rotatable=0;points=[[0,0.5],[1,0.5]];portConstraint=eastwest;html=1;" vertex="1" parent="1">
          <mxGeometry x="1011" y="310" width="80" height="26" as="geometry" />
        </mxCell>
        <mxCell id="gKyVmOSs5IsR8W9jPp8y-29" value="MongoDB" style="shape=module;align=left;spacingLeft=20;align=center;verticalAlign=top;whiteSpace=wrap;html=1;" vertex="1" parent="1">
          <mxGeometry x="1081" y="352" width="100" height="50" as="geometry" />
        </mxCell>
        <mxCell id="gKyVmOSs5IsR8W9jPp8y-30" value="" style="endArrow=block;dashed=1;endFill=0;endSize=12;html=1;rounded=0;exitX=0.607;exitY=0.987;exitDx=0;exitDy=0;exitPerimeter=0;entryX=0;entryY=0;entryDx=145;entryDy=20;entryPerimeter=0;" edge="1" parent="1" source="gKyVmOSs5IsR8W9jPp8y-4" target="gKyVmOSs5IsR8W9jPp8y-27">
          <mxGeometry width="160" relative="1" as="geometry">
            <mxPoint x="480" y="300" as="sourcePoint" />
            <mxPoint x="640" y="300" as="targetPoint" />
          </mxGeometry>
        </mxCell>
        <mxCell id="gKyVmOSs5IsR8W9jPp8y-31" value="" style="endArrow=block;dashed=1;endFill=0;endSize=12;html=1;rounded=0;exitX=1.002;exitY=0.628;exitDx=0;exitDy=0;exitPerimeter=0;" edge="1" parent="1" source="gKyVmOSs5IsR8W9jPp8y-1" target="gKyVmOSs5IsR8W9jPp8y-23">
          <mxGeometry width="160" relative="1" as="geometry">
            <mxPoint x="480" y="300" as="sourcePoint" />
            <mxPoint x="640" y="300" as="targetPoint" />
          </mxGeometry>
        </mxCell>
        <mxCell id="gKyVmOSs5IsR8W9jPp8y-32" value="Gesti贸n De Log铆stica y Soporte" style="text;align=center;fontStyle=1;verticalAlign=middle;spacingLeft=3;spacingRight=3;strokeColor=none;rotatable=0;points=[[0,0.5],[1,0.5]];portConstraint=eastwest;html=1;" vertex="1" parent="1">
          <mxGeometry x="931" y="76" width="80" height="26" as="geometry" />
        </mxCell>
        <mxCell id="gKyVmOSs5IsR8W9jPp8y-33" value="Carga y Administraci贸n Del contenido Did谩ctico" style="shape=module;align=left;spacingLeft=20;align=center;verticalAlign=top;whiteSpace=wrap;html=1;" vertex="1" parent="1">
          <mxGeometry x="340" y="330" width="140" height="50" as="geometry" />
        </mxCell>
        <mxCell id="gKyVmOSs5IsR8W9jPp8y-34" value="Monitoreo del Progreso de los Estudiantes" style="shape=module;align=left;spacingLeft=20;align=center;verticalAlign=top;whiteSpace=wrap;html=1;" vertex="1" parent="1">
          <mxGeometry x="50" y="400" width="120" height="50" as="geometry" />
        </mxCell>
        <mxCell id="gKyVmOSs5IsR8W9jPp8y-35" value="Evaluaciones y Retroalimentaci贸n" style="shape=module;align=left;spacingLeft=20;align=center;verticalAlign=top;whiteSpace=wrap;html=1;" vertex="1" parent="1">
          <mxGeometry x="190" y="402" width="130" height="38" as="geometry" />
        </mxCell>
        <mxCell id="gKyVmOSs5IsR8W9jPp8y-36" value="Administraci贸n de proveedores tecnol贸gicos" style="shape=module;align=left;spacingLeft=20;align=center;verticalAlign=top;whiteSpace=wrap;html=1;" vertex="1" parent="1">
          <mxGeometry x="1200" y="110" width="130" height="50" as="geometry" />
        </mxCell>
        <mxCell id="gKyVmOSs5IsR8W9jPp8y-37" value="Gesti贸n del estado de incidencias" style="shape=module;align=left;spacingLeft=20;align=center;verticalAlign=top;whiteSpace=wrap;html=1;" vertex="1" parent="1">
          <mxGeometry x="1050" y="110" width="140" height="50" as="geometry" />
        </mxCell>
        <mxCell id="gKyVmOSs5IsR8W9jPp8y-38" value="Optimizaci贸n del uso de recursos del sistema" style="shape=module;align=left;spacingLeft=20;align=center;verticalAlign=top;whiteSpace=wrap;html=1;" vertex="1" parent="1">
          <mxGeometry x="880" y="170" width="160" height="50" as="geometry" />
        </mxCell>
        <mxCell id="gKyVmOSs5IsR8W9jPp8y-39" value="Recepci贸n y seguimiento de solicitudes de soporte de usuarios" style="shape=module;align=left;spacingLeft=20;align=center;verticalAlign=top;whiteSpace=wrap;html=1;" vertex="1" parent="1">
          <mxGeometry x="880" y="110" width="160" height="50" as="geometry" />
        </mxCell>
        <mxCell id="gKyVmOSs5IsR8W9jPp8y-41" value="" style="shape=folder;fontStyle=1;spacingTop=10;tabWidth=70;tabHeight=20;tabPosition=left;html=1;whiteSpace=wrap;" vertex="1" parent="1">
          <mxGeometry x="460" y="537" width="170" height="95" as="geometry" />
        </mxCell>
        <mxCell id="gKyVmOSs5IsR8W9jPp8y-42" value="Servicios" style="text;align=center;fontStyle=1;verticalAlign=middle;spacingLeft=3;spacingRight=3;strokeColor=none;rotatable=0;points=[[0,0.5],[1,0.5]];portConstraint=eastwest;html=1;" vertex="1" parent="1">
          <mxGeometry x="450" y="537" width="80" height="26" as="geometry" />
        </mxCell>
        <mxCell id="gKyVmOSs5IsR8W9jPp8y-43" value="Sistema de pago(Webpay)" style="shape=module;align=left;spacingLeft=20;align=center;verticalAlign=top;whiteSpace=wrap;html=1;" vertex="1" parent="1">
          <mxGeometry x="480" y="567" width="100" height="55" as="geometry" />
        </mxCell>
        <mxCell id="gKyVmOSs5IsR8W9jPp8y-44" value="" style="endArrow=block;dashed=1;endFill=0;endSize=12;html=1;rounded=0;exitX=0.896;exitY=0.983;exitDx=0;exitDy=0;exitPerimeter=0;entryX=0;entryY=0;entryDx=120;entryDy=20;entryPerimeter=0;" edge="1" parent="1" source="gKyVmOSs5IsR8W9jPp8y-2" target="gKyVmOSs5IsR8W9jPp8y-41">
          <mxGeometry width="160" relative="1" as="geometry">
            <mxPoint x="500" y="146" as="sourcePoint" />
            <mxPoint x="555" y="283" as="targetPoint" />
          </mxGeometry>
        </mxCell>
      </root>
    </mxGraphModel>
  </diagram>
</mxfile>
